<svg xmlns:xlink="http://www.w3.org/1999/xlink" class="herologo" xmlns="http://www.w3.org/2000/svg" viewBox="0 0 673.36 209.07" width="673.36"  height="209.07" >
  <defs>
    <style>
      .xchrb-1 {
        fill: #55a9dd;
      }

      .xchrb-2 {
        fill: #656665;
      }

      .xchrb-3 {
        fill: #22528b;
      }
    </style>
  </defs>
  <g>
    <path class="xchrb-2" d="M350.22,70.07l-.45,57.32c-.12,18.76-14.24,28.04-42.36,27.87-28.02-.18-41.98-9.64-41.86-28.4l.45-57.32,23.34.15-.45,57.32c-.03,4.39,1.4,7.42,4.28,9.08,2.88,1.66,7.76,2.52,14.64,2.56,6.78.04,11.58-.75,14.38-2.38,2.8-1.62,4.22-4.63,4.25-9.02l.45-57.32,23.33.15Z" fill="#656665"></path>
    <g>
      <polygon class="xchrb-2" points="104.17 153.48 141.93 153.48 88.79 79.06 51.08 79.06 104.17 153.48" fill="#656665"></polygon>
      <path class="xchrb-3" d="M88.85,140.72l-14.44-19.94s-.04-.06-.06-.09l-33.43,46.59h37.55l14.83-20.3-4.44-6.26Z" fill="#22528B"></path>
      <polygon class="xchrb-1" points="104.28 91.78 116.61 109.26 145.12 69.53 114.59 69.53 101.55 87.98 104.28 91.78" fill="#55A9DD"></polygon>
    </g>
    <path class="xchrb-2" d="M161.43,72.17c0-22.95,19.07-30.39,48.65-30.39,10.83,0,21.18.81,33.78,3.07v18.75c-10.51-1.46-20.04-2.1-29.9-2.1-16.33,0-28.93,1.13-28.93,15.52v42.67c0,14.22,12.61,15.52,28.93,15.52,9.86,0,20.37-1.62,29.9-3.56v18.75c-13.25,3.23-23.92,4.85-33.78,4.85-29.58,0-48.65-7.27-48.65-30.23v-52.86Z" fill="#656665"></path>
    <path class="xchrb-2" d="M525.28,118.4c-12.61.81-41.54.97-57.54.16v4.53c0,10.99,7.92,13.09,24.41,13.09,10.99,0,18.91-.81,29.42-2.59v18.75c-12.77,1.94-22.95,2.91-35.08,2.91-25.54,0-41.87-6.95-41.87-27.48v-32.17c0-21.5,16.97-27.96,40.9-27.96,22.14,0,39.76,8.24,39.76,31.36v19.4ZM502.65,98.52c0-10.67-8.24-11.96-17.46-11.96s-17.46,1.29-17.46,11.96v6.63l10.99-.81h23.92v-5.82Z" fill="#656665"></path>
    <path class="xchrb-2" d="M611.91,133.6c0,15.68-13.9,21.66-36.37,21.66-9.86,0-21.18-.65-31.68-2.26v-18.1c10.18,1.46,20.53,1.94,28.29,1.94,8.57,0,16.49-.48,16.49-5.98v-2.91c0-5.01-4.2-5.33-12.28-7.27l-14.87-3.56c-11.31-2.75-18.27-8.24-18.27-19.4v-9.05c0-15.03,14.39-21.01,37.34-21.01,9.38,0,19.07.65,30.07,2.75v17.94c-11.64-1.78-19.07-2.26-27.32-2.26-9.05,0-16.97.32-16.97,5.82v3.07c0,4.2,5.17,5.5,12.45,7.11l13.9,3.07c12.93,2.91,19.24,7.76,19.24,20.69v7.76Z" fill="#656665"></path>
    <path class="xchrb-2" d="M398.39,83h-.97l-1.46-13.74c-6.95-.49-13.74-.49-20.53,0v84.05c5.5.81,17.46.81,23.12,0v-50.27c5.01-11.64,10.67-15.36,31.68-15.36v-20.04c-16.81,0-28.93,4.53-31.84,15.36Z" fill="#656665"></path>
  </g>
  <path class="xchrb-2" d="M611.91,57.99c0-5.89,4.65-10.55,10.27-10.55s10.27,4.65,10.27,10.55-4.65,10.55-10.27,10.55-10.27-4.65-10.27-10.55ZM630.52,57.99c0-4.82-3.55-8.82-8.34-8.82s-8.37,4-8.37,8.82,3.55,8.82,8.37,8.82,8.34-4,8.34-8.82ZM620.56,63.3h-1.9v-10.79h3.34c2.45,0,3.76,1.38,3.76,3.1,0,1.48-.79,2.41-2.07,2.93l2.79,3.55v1.21h-1.21l-3.48-4.34h-1.24v4.34ZM621.8,57.47c1.27,0,2.07-.83,2.07-1.79s-.76-1.72-2.07-1.72h-1.24v3.52h1.24Z" fill="#656665"></path>
</svg>